<svg width="213" height="48" viewBox="0 0 213 48" fill="none" xmlns="http://www.w3.org/2000/svg">
<path d="M12.136 46.24C10.952 46.24 10.104 45.984 9.592 45.472C9.08 44.928 8.824 43.92 8.824 42.448C8.824 41.456 8.92 40.192 9.112 38.656C9.336 37.088 9.688 34.944 10.168 32.224C11 27.2 11.656 22.848 12.136 19.168C12.424 16.864 12.568 14.944 12.568 13.408C12.568 11.968 12.04 11.248 10.984 11.248C10.152 11.248 9.144 11.68 7.96 12.544C6.808 13.376 5.528 14.72 4.12 16.576C3.672 17.184 3.176 17.488 2.632 17.488C2.184 17.488 1.784 17.28 1.432 16.864C1.112 16.416 0.952 15.92 0.952 15.376C0.952 14.864 1.048 14.352 1.24 13.84C1.464 13.296 1.816 12.688 2.296 12.016C3.832 9.872 5.544 8.224 7.432 7.072C9.32 5.888 11.208 5.296 13.096 5.296C14.856 5.296 16.2 5.856 17.128 6.976C18.088 8.096 18.568 9.728 18.568 11.872C18.568 12.736 18.488 13.76 18.328 14.944C18.168 16.096 18.024 17.04 17.896 17.776C17.768 18.512 17.672 19.024 17.608 19.312C19.432 14.096 21.48 10.464 23.752 8.416C26.024 6.336 28.52 5.296 31.24 5.296C33.32 5.296 34.952 6.032 36.136 7.504C37.352 8.976 37.96 11.056 37.96 13.744C37.96 14.8 37.816 16.112 37.528 17.68C39.128 13.264 41 10.096 43.144 8.176C45.288 6.256 47.752 5.296 50.536 5.296C52.776 5.296 54.488 6.016 55.672 7.456C56.888 8.896 57.496 10.912 57.496 13.504C57.496 14.912 57.288 16.624 56.872 18.64L53.944 32.368C53.624 33.968 53.464 35.344 53.464 36.496C53.464 37.84 53.768 38.848 54.376 39.52C55.016 40.192 55.896 40.528 57.016 40.528C58.072 40.528 59.096 40.176 60.088 39.472C61.112 38.768 62.312 37.6 63.688 35.968C64.072 35.52 64.504 35.296 64.984 35.296C65.4 35.296 65.72 35.488 65.944 35.872C66.2 36.256 66.328 36.784 66.328 37.456C66.328 38.704 66.024 39.696 65.416 40.432C63.752 42.448 62.104 43.92 60.472 44.848C58.84 45.776 57.128 46.24 55.336 46.24C52.616 46.24 50.488 45.44 48.952 43.84C47.416 42.208 46.648 40.032 46.648 37.312C46.648 35.424 47.032 32.688 47.8 29.104L49.72 20.32C49.784 20.032 49.896 19.52 50.056 18.784C50.216 18.048 50.344 17.36 50.44 16.72C50.536 16.048 50.584 15.392 50.584 14.752C50.584 13.632 50.36 12.8 49.912 12.256C49.496 11.68 48.888 11.392 48.088 11.392C46.584 11.392 45 12.368 43.336 14.32C41.704 16.24 40.136 19.44 38.632 23.92C37.16 28.4 35.96 34.224 35.032 41.392C34.808 43.312 34.408 44.608 33.832 45.28C33.288 45.92 32.392 46.24 31.144 46.24C30.056 46.24 29.256 45.984 28.744 45.472C28.264 44.96 28.024 44 28.024 42.592C28.024 41.28 28.2 39.568 28.552 37.456C28.904 35.312 29.352 32.8 29.896 29.92C31.368 22.176 32.104 17.184 32.104 14.944C32.104 13.728 31.864 12.832 31.384 12.256C30.936 11.68 30.248 11.392 29.32 11.392C27.752 11.392 26.136 12.288 24.472 14.08C22.808 15.84 21.176 18.992 19.576 23.536C18.008 28.048 16.696 34.16 15.64 41.872C15.416 43.504 15.08 44.64 14.632 45.28C14.216 45.92 13.384 46.24 12.136 46.24ZM71.6283 46.24C68.4923 46.24 66.0443 45.36 64.2843 43.6C62.5563 41.808 61.6923 39.456 61.6923 36.544C61.6923 33.952 62.2043 31.68 63.2283 29.728C64.2523 27.776 65.5803 26.272 67.2122 25.216C68.8443 24.16 70.5563 23.632 72.3483 23.632C74.1083 23.632 75.4683 24.16 76.4283 25.216C77.4203 26.24 77.9163 27.568 77.9163 29.2C77.9163 30.544 77.6123 31.68 77.0043 32.608C76.4283 33.536 75.6603 34 74.7003 34C74.0923 34 73.5963 33.856 73.2123 33.568C72.8603 33.28 72.6843 32.88 72.6843 32.368C72.6843 32.144 72.7163 31.888 72.7803 31.6C72.8443 31.312 72.8923 31.104 72.9243 30.976C73.0843 30.496 73.1643 30.048 73.1643 29.632C73.1643 29.216 73.0523 28.896 72.8282 28.672C72.6363 28.448 72.3483 28.336 71.9643 28.336C71.2283 28.336 70.5403 28.672 69.9003 29.344C69.2603 29.984 68.7483 30.864 68.3643 31.984C67.9803 33.104 67.7883 34.336 67.7883 35.68C67.7883 39.392 69.4043 41.248 72.6363 41.248C73.9483 41.248 75.3563 40.816 76.8603 39.952C78.3963 39.056 79.9003 37.728 81.3723 35.968C81.7563 35.52 82.1883 35.296 82.6683 35.296C83.0843 35.296 83.4043 35.488 83.6283 35.872C83.8843 36.256 84.0123 36.784 84.0123 37.456C84.0123 38.672 83.7083 39.664 83.1003 40.432C81.5963 42.288 79.7883 43.728 77.6763 44.752C75.5963 45.744 73.5803 46.24 71.6283 46.24ZM106.927 35.296C107.343 35.296 107.663 35.488 107.887 35.872C108.143 36.256 108.271 36.784 108.271 37.456C108.271 38.736 107.967 39.728 107.359 40.432C106.047 42.032 104.607 43.408 103.039 44.56C101.471 45.68 99.9194 46.24 98.3834 46.24C95.9514 46.24 94.0954 44.816 92.8154 41.968C91.4714 43.664 90.2874 44.8 89.2634 45.376C88.2714 45.952 87.1034 46.24 85.7594 46.24C83.8074 46.24 82.1914 45.52 80.9114 44.08C79.6634 42.608 79.0394 40.704 79.0394 38.368C79.0394 35.808 79.5834 33.44 80.6714 31.264C81.7594 29.056 83.2474 27.264 85.1354 25.888C87.0554 24.48 89.1994 23.648 91.5674 23.392C92.1754 17.184 93.3274 11.888 95.0234 7.504C96.7514 3.088 99.0074 0.879997 101.791 0.879997C103.167 0.879997 104.303 1.504 105.199 2.752C106.127 4 106.591 5.888 106.591 8.416C106.591 12 105.711 16.192 103.951 20.992C102.191 25.792 99.8394 30.72 96.8954 35.776C97.0234 37.632 97.2954 38.96 97.7114 39.76C98.1594 40.56 98.7194 40.96 99.3914 40.96C100.255 40.96 101.135 40.576 102.031 39.808C102.927 39.04 104.127 37.76 105.631 35.968C106.015 35.52 106.447 35.296 106.927 35.296ZM101.263 5.584C100.655 5.584 100.047 6.672 99.4394 8.848C98.8314 10.992 98.3034 13.808 97.8554 17.296C97.4394 20.784 97.1354 24.432 96.9434 28.24C100.527 20.432 102.319 14.16 102.319 9.424C102.319 8.208 102.207 7.264 101.983 6.592C101.791 5.92 101.551 5.584 101.263 5.584ZM87.4394 41.392C88.0474 41.392 88.6554 41.152 89.2634 40.672C89.8714 40.16 90.6394 39.232 91.5674 37.888C91.2474 36.16 91.0874 34.224 91.0874 32.08C91.0874 31.312 91.1194 30.064 91.1834 28.336C89.4234 28.88 87.9514 30.064 86.7674 31.888C85.6154 33.68 85.0394 35.68 85.0394 37.888C85.0394 40.224 85.8394 41.392 87.4394 41.392ZM109.802 46.24C107.818 46.24 106.234 45.52 105.05 44.08C103.866 42.64 103.274 40.752 103.274 38.416C103.274 35.856 103.866 33.44 105.05 31.168C106.234 28.864 107.802 27.024 109.754 25.648C111.738 24.24 113.834 23.536 116.042 23.536C116.746 23.536 117.21 23.68 117.434 23.968C117.69 24.224 117.898 24.704 118.058 25.408C118.73 25.28 119.434 25.216 120.17 25.216C121.738 25.216 122.522 25.776 122.522 26.896C122.522 27.568 122.282 29.168 121.802 31.696C121.066 35.376 120.698 37.936 120.698 39.376C120.698 39.856 120.81 40.24 121.034 40.528C121.29 40.816 121.61 40.96 121.994 40.96C122.602 40.96 123.338 40.576 124.202 39.808C125.066 39.008 126.234 37.728 127.706 35.968C128.09 35.52 128.522 35.296 129.002 35.296C129.418 35.296 129.738 35.488 129.962 35.872C130.218 36.256 130.346 36.784 130.346 37.456C130.346 38.736 130.042 39.728 129.434 40.432C128.122 42.064 126.73 43.44 125.258 44.56C123.786 45.68 122.362 46.24 120.986 46.24C119.93 46.24 118.954 45.888 118.058 45.184C117.194 44.448 116.538 43.456 116.09 42.208C114.426 44.896 112.33 46.24 109.802 46.24ZM111.53 41.392C112.234 41.392 112.906 40.976 113.546 40.144C114.186 39.312 114.65 38.208 114.938 36.832L116.714 28C115.37 28.032 114.122 28.544 112.97 29.536C111.85 30.496 110.954 31.776 110.282 33.376C109.61 34.976 109.274 36.672 109.274 38.464C109.274 39.456 109.466 40.192 109.85 40.672C110.266 41.152 110.826 41.392 111.53 41.392ZM129.853 46.24C128.637 46.24 127.773 45.6 127.261 44.32C126.781 43.04 126.541 40.992 126.541 38.176C126.541 34.016 127.133 30.064 128.317 26.32C128.605 25.392 129.069 24.72 129.709 24.304C130.381 23.856 131.309 23.632 132.493 23.632C133.133 23.632 133.581 23.712 133.837 23.872C134.093 24.032 134.221 24.336 134.221 24.784C134.221 25.296 133.981 26.448 133.501 28.24C133.181 29.52 132.925 30.64 132.733 31.6C132.541 32.56 132.381 33.744 132.253 35.152C133.309 32.4 134.493 30.16 135.805 28.432C137.117 26.704 138.397 25.472 139.645 24.736C140.925 24 142.093 23.632 143.149 23.632C145.229 23.632 146.269 24.672 146.269 26.752C146.269 28 145.917 30.256 145.213 33.52C144.605 36.304 144.301 38.144 144.301 39.04C144.301 40.32 144.765 40.96 145.693 40.96C146.333 40.96 147.085 40.576 147.949 39.808C148.845 39.008 150.029 37.728 151.501 35.968C151.885 35.52 152.317 35.296 152.797 35.296C153.213 35.296 153.533 35.488 153.757 35.872C154.013 36.256 154.141 36.784 154.141 37.456C154.141 38.736 153.837 39.728 153.229 40.432C151.853 42.128 150.365 43.52 148.765 44.608C147.197 45.696 145.405 46.24 143.389 46.24C141.757 46.24 140.525 45.776 139.693 44.848C138.861 43.888 138.445 42.512 138.445 40.72C138.445 39.824 138.669 38.224 139.117 35.92C139.533 33.904 139.741 32.512 139.741 31.744C139.741 31.232 139.565 30.976 139.213 30.976C138.797 30.976 138.205 31.52 137.437 32.608C136.701 33.664 135.933 35.072 135.133 36.832C134.365 38.592 133.741 40.448 133.261 42.4C132.909 43.904 132.493 44.928 132.013 45.472C131.565 45.984 130.845 46.24 129.853 46.24ZM156.545 20.464C155.201 20.464 154.193 20.16 153.521 19.552C152.849 18.912 152.513 18.032 152.513 16.912C152.513 15.792 152.945 14.864 153.809 14.128C154.705 13.36 155.809 12.976 157.121 12.976C158.305 12.976 159.265 13.264 160.001 13.84C160.737 14.416 161.105 15.232 161.105 16.288C161.105 17.568 160.689 18.592 159.857 19.36C159.025 20.096 157.921 20.464 156.545 20.464ZM156.161 46.24C154.081 46.24 152.561 45.504 151.601 44.032C150.673 42.56 150.209 40.608 150.209 38.176C150.209 36.736 150.385 34.896 150.737 32.656C151.121 30.384 151.601 28.272 152.177 26.32C152.465 25.296 152.849 24.592 153.329 24.208C153.809 23.824 154.577 23.632 155.633 23.632C157.265 23.632 158.081 24.176 158.081 25.264C158.081 26.064 157.777 27.92 157.169 30.832C156.401 34.352 156.017 36.736 156.017 37.984C156.017 38.944 156.145 39.68 156.401 40.192C156.657 40.704 157.089 40.96 157.697 40.96C158.273 40.96 158.993 40.56 159.857 39.76C160.721 38.96 161.873 37.696 163.313 35.968C163.697 35.52 164.129 35.296 164.609 35.296C165.025 35.296 165.345 35.488 165.569 35.872C165.825 36.256 165.953 36.784 165.953 37.456C165.953 38.736 165.649 39.728 165.041 40.432C161.873 44.304 158.913 46.24 156.161 46.24ZM183.478 35.296C183.894 35.296 184.214 35.488 184.438 35.872C184.694 36.256 184.822 36.784 184.822 37.456C184.822 38.736 184.518 39.728 183.91 40.432C182.726 41.872 181.046 43.2 178.87 44.416C176.726 45.632 174.422 46.24 171.958 46.24C168.598 46.24 165.99 45.328 164.134 43.504C162.278 41.68 161.35 39.184 161.35 36.016C161.35 33.808 161.814 31.76 162.742 29.872C163.67 27.952 164.95 26.432 166.582 25.312C168.246 24.192 170.118 23.632 172.198 23.632C174.054 23.632 175.542 24.192 176.662 25.312C177.782 26.4 178.342 27.888 178.342 29.776C178.342 31.984 177.542 33.888 175.942 35.488C174.374 37.056 171.702 38.304 167.926 39.232C168.726 40.704 170.246 41.44 172.486 41.44C173.926 41.44 175.558 40.944 177.382 39.952C179.238 38.928 180.838 37.6 182.182 35.968C182.566 35.52 182.998 35.296 183.478 35.296ZM171.382 28.336C170.198 28.336 169.19 29.024 168.358 30.4C167.558 31.776 167.158 33.44 167.158 35.392V35.488C169.046 35.04 170.534 34.368 171.622 33.472C172.71 32.576 173.254 31.536 173.254 30.352C173.254 29.744 173.078 29.264 172.726 28.912C172.406 28.528 171.958 28.336 171.382 28.336ZM199.105 35.296C199.521 35.296 199.841 35.488 200.065 35.872C200.321 36.256 200.449 36.784 200.449 37.456C200.449 38.736 200.145 39.728 199.537 40.432C198.161 42.128 196.657 43.52 195.025 44.608C193.425 45.696 191.601 46.24 189.553 46.24C186.737 46.24 184.641 44.96 183.265 42.4C181.921 39.84 181.249 36.528 181.249 32.464C181.249 28.56 181.745 24.112 182.737 19.12C183.761 14.128 185.249 9.84 187.201 6.256C189.185 2.672 191.537 0.879997 194.257 0.879997C195.793 0.879997 196.993 1.6 197.857 3.04C198.753 4.448 199.201 6.48 199.201 9.136C199.201 12.944 198.145 17.36 196.033 22.384C193.921 27.408 191.057 32.384 187.441 37.312C187.665 38.624 188.033 39.568 188.545 40.144C189.057 40.688 189.729 40.96 190.561 40.96C191.873 40.96 193.025 40.592 194.017 39.856C195.009 39.088 196.273 37.792 197.809 35.968C198.193 35.52 198.625 35.296 199.105 35.296ZM193.201 5.632C192.465 5.632 191.633 6.96 190.705 9.616C189.777 12.272 188.961 15.568 188.257 19.504C187.553 23.44 187.169 27.216 187.105 30.832C189.377 27.088 191.185 23.344 192.529 19.6C193.873 15.824 194.545 12.384 194.545 9.28C194.545 6.848 194.097 5.632 193.201 5.632ZM205.498 47.296C203.834 47.296 202.554 46.912 201.658 46.144C200.794 45.376 200.362 44.512 200.362 43.552C200.362 42.72 200.666 42 201.274 41.392C201.882 40.784 202.778 40.48 203.962 40.48C204.378 40.48 204.858 40.528 205.402 40.624C205.978 40.688 206.41 40.736 206.698 40.768C206.666 39.936 206.474 39.152 206.122 38.416C205.802 37.68 205.386 36.976 204.874 36.304C204.362 35.6 203.882 34.992 203.434 34.48C202.442 36.368 201.45 37.936 200.458 39.184C199.498 40.432 198.442 41.616 197.29 42.736C196.714 43.312 196.106 43.6 195.466 43.6C194.954 43.6 194.538 43.424 194.218 43.072C193.898 42.688 193.738 42.224 193.738 41.68C193.738 41.04 193.962 40.448 194.41 39.904L195.034 39.136C196.794 36.96 198.122 35.168 199.018 33.76C199.594 32.832 200.17 31.728 200.746 30.448C201.354 29.168 202.138 27.424 203.098 25.216C203.706 23.808 204.97 23.104 206.89 23.104C207.786 23.104 208.41 23.184 208.762 23.344C209.114 23.504 209.29 23.76 209.29 24.112C209.29 24.304 209.226 24.608 209.098 25.024C208.97 25.44 208.794 25.856 208.57 26.272C207.994 27.424 207.706 28.4 207.706 29.2C207.706 29.68 207.866 30.208 208.186 30.784C208.538 31.36 209.066 32.08 209.77 32.944C210.794 34.288 211.562 35.44 212.074 36.4C212.618 37.328 212.89 38.352 212.89 39.472C212.89 40.816 212.57 42.096 211.93 43.312C211.322 44.496 210.458 45.456 209.338 46.192C208.218 46.928 206.938 47.296 205.498 47.296Z" fill="white"/>
</svg>
